# xmcd
#
# Track frame offsets: 
#        150
#        14378
#        27077
#        40090
#        51307
#        65295
#        80349
#        98012
#        109442
#        123533
#        137493
#        152812
#        162778
#        178150
#        191646
#
# Disc length: 2776 seconds
#
# Revision: 0
# Processed by: cddbd v1.5.2PL0 Copyright (c) Steve Scherf et al.
# Submitted via: ExactAudioCopy v0.99pb4
#
DISCID=c30ad60f
DTITLE=Eric Lindell - Gulf Coast Highway
DYEAR=2009
DGENRE=Blues
TTITLE0=If Love Can't Find A Way
TTITLE1=Willin' And Able
TTITLE2=Love And Compassion
TTITLE3=This Love Is Gonna Last
TTITLE4=Turnin' It Out
TTITLE5=It's A Drag
TTITLE6=Lullaby For Mercy Ann
TTITLE7=The Look
TTITLE8=I Can Get Off On You
TTITLE9=Country Livin'
TTITLE10=Dirty Bird
TTITLE11=I'll Be Around
TTITLE12=Here Come The Blues Again
TTITLE13=Crying Time
TTITLE14=Raw Doggin'
EXTD=
EXTT0=
EXTT1=
EXTT2=
EXTT3=
EXTT4=
EXTT5=
EXTT6=
EXTT7=
EXTT8=
EXTT9=
EXTT10=
EXTT11=
EXTT12=
EXTT13=
EXTT14=
PLAYORDER=
